<svg xmlns="http://www.w3.org/2000/svg" version="1.1" xmlns:xlink="http://www.w3.org/1999/xlink" xmlns:svgjs="http://svgjs.dev/svgjs" width="180" height="180"><svg width="180" height="180" viewBox="0 0 180 180" version="1.1" id="SvgjsSvg1038" inkscape:version="1.4 (86a8ad7, 2024-10-11)" sodipodi:docname="websitelogov1.svg" xmlns:inkscape="http://www.inkscape.org/namespaces/inkscape" xmlns:sodipodi="http://sodipodi.sourceforge.net/DTD/sodipodi-0.dtd" xmlns="http://www.w3.org/2000/svg" xmlns:svg="http://www.w3.org/2000/svg">
  <sodipodi:namedview id="SvgjsSodipodi:namedview1037" pagecolor="#ffffff" bordercolor="#000000" borderopacity="0.25" inkscape:showpageshadow="2" inkscape:pageopacity="0.0" inkscape:pagecheckerboard="0" inkscape:deskcolor="#d1d1d1" inkscape:document-units="px" inkscape:zoom="5.6568543" inkscape:cx="169.26369" inkscape:cy="86.885745" inkscape:window-width="2560" inkscape:window-height="1369" inkscape:window-x="-8" inkscape:window-y="-8" inkscape:window-maximized="1" inkscape:current-layer="layer1"></sodipodi:namedview>
  <defs id="SvgjsDefs1036"></defs>
  <g inkscape:groupmode="layer" id="SvgjsG1035" inkscape:label="Layer 2">
    <rect style="font-variation-settings:'wght' 600;fill:#1e0a2e;stroke:#808080;fill-opacity:1" id="SvgjsRect1034" width="184.90842" height="194.10078" x="-4.0658641" y="-7.0710678" ry="0"></rect>
  </g>
  <g inkscape:label="Layer 1" inkscape:groupmode="layer" id="SvgjsG1033" style="fill:#55e89c;fill-opacity:1" transform="translate(-5.1953918,-0.23927641)">
    <g id="SvgjsG1032" transform="matrix(2.9296229,-2.9296229,2.9296229,2.9296229,-386.1023,70.433448)" style="fill:#55e89c;fill-opacity:1">
      <path d="m 85.173322,94.657346 v -9.233089 h 2.442713 v 9.233089 q 0,1.321617 -0.501303,2.269536 -0.492189,0.947918 -1.348961,1.449221 -0.847658,0.501303 -1.923181,0.501303 -1.093752,0 -1.950524,-0.437501 -0.856772,-0.4375 -1.348961,-1.330731 -0.492188,-0.902346 -0.492188,-2.27865 h 2.451827 q 0,0.738282 0.164063,1.184898 0.173177,0.437501 0.473959,0.638022 0.309897,0.191406 0.701824,0.191406 0.410157,0 0.710939,-0.255208 0.300782,-0.255209 0.45573,-0.747398 0.164063,-0.492188 0.164063,-1.184898 z" id="SvgjsPath1031" style="font-size:18.6667px;font-family:Roboto;-inkscape-font-specification:'Roboto, @wght=600';font-variation-settings:'wght' 600" aria-label="J"></path>
      <path d="m 85.174279,76.376834 v 9.233089 h 2.442713 v -9.233089 q 0,-1.321617 -0.501303,-2.269536 -0.492189,-0.947918 -1.348961,-1.449221 -0.847658,-0.501303 -1.923181,-0.501303 -1.093752,0 -1.950524,0.437501 -0.856772,0.4375 -1.348961,1.330731 -0.492188,0.902346 -0.492188,2.27865 h 2.451827 q 0,-0.738282 0.164063,-1.184898 0.173177,-0.437501 0.473959,-0.638022 0.309896,-0.191406 0.701824,-0.191406 0.410157,0 0.710939,0.255208 0.300782,0.255209 0.45573,0.747398 0.164063,0.492188 0.164063,1.184898 z" id="SvgjsPath1030" style="font-size:18.6667px;font-family:Roboto;-inkscape-font-specification:'Roboto, @wght=600';font-variation-settings:'wght' 600" aria-label="J"></path>
      <path d="m 77.382384,76.015791 v -9.23309 h -2.442713 v 9.23309 q 0,1.321617 0.501303,2.269535 0.492188,0.947919 1.348961,1.449222 0.847657,0.501303 1.92318,0.501303 1.093752,0 1.950524,-0.437501 0.856773,-0.437501 1.348961,-1.330732 0.492189,-0.902345 0.492189,-2.27865 h -2.451828 q 0,0.738283 -0.164063,1.184898 -0.173177,0.437501 -0.473959,0.638022 -0.309896,0.191407 -0.701824,0.191407 -0.410157,0 -0.710939,-0.255209 -0.300781,-0.255209 -0.45573,-0.747397 -0.164062,-0.492188 -0.164062,-1.184898 z" id="SvgjsPath1029" style="font-size:18.6667px;font-family:Roboto;-inkscape-font-specification:'Roboto, @wght=600';font-variation-settings:'wght' 600" aria-label="J"></path>
      <path d="m -77.382586,-95.01449 v -9.23309 h 2.442712 v 9.23309 q 0,1.321617 -0.501303,2.269535 -0.492188,0.947918 -1.34896,1.449221 -0.847658,0.501303 -1.923181,0.501303 -1.093752,0 -1.950524,-0.437501 -0.856773,-0.4375 -1.348961,-1.330731 -0.492188,-0.902345 -0.492188,-2.27865 h 2.451827 q 0,0.738283 0.164063,1.184898 0.173177,0.437501 0.473959,0.638022 0.309896,0.191407 0.701824,0.191407 0.410157,0 0.710939,-0.255209 0.300782,-0.255209 0.45573,-0.747397 0.164063,-0.492189 0.164063,-1.184898 z" id="SvgjsPath1028" style="font-size:18.6667px;font-family:Roboto;-inkscape-font-specification:'Roboto, @wght=600';font-variation-settings:'wght' 600" transform="scale(-1)" aria-label="J"></path>
      <path d="m -72.350535,94.676534 v -9.233089 h 2.442713 v 9.233089 q 0,1.321617 -0.501303,2.269536 -0.492189,0.947918 -1.348961,1.449221 -0.847658,0.501303 -1.923181,0.501303 -1.093752,0 -1.950524,-0.437501 -0.856772,-0.437501 -1.348961,-1.330731 -0.492188,-0.902346 -0.492188,-2.27865 h 2.451827 q 0,0.738282 0.164063,1.184898 0.173177,0.437501 0.473959,0.638022 0.309896,0.191406 0.701824,0.191406 0.410157,0 0.710939,-0.255208 0.300782,-0.255209 0.45573,-0.747398 0.164063,-0.492188 0.164063,-1.184898 z" id="SvgjsPath1027" style="font-size:18.6667px;font-family:Roboto;-inkscape-font-specification:'Roboto, @wght=600';font-variation-settings:'wght' 600" transform="scale(-1,1)" aria-label="J"></path>
      <path d="m 72.353918,76.396029 v 9.23309 h -2.442712 v -9.23309 q 0,-1.321617 0.501303,-2.269535 0.492188,-0.947919 1.34896,-1.449222 0.847658,-0.501303 1.923181,-0.501303 1.093752,0 1.950524,0.437501 0.856773,0.437501 1.348961,1.330732 0.492188,0.902345 0.492188,2.27865 h -2.451827 q 0,-0.738283 -0.164063,-1.184898 -0.173177,-0.437501 -0.473959,-0.638022 -0.309896,-0.191407 -0.701824,-0.191407 -0.410157,0 -0.710939,0.255209 -0.300782,0.255209 -0.45573,0.747397 -0.164063,0.492189 -0.164063,1.184898 z" id="SvgjsPath1026" style="font-size:18.6667px;font-family:Roboto;-inkscape-font-specification:'Roboto, @wght=600';font-variation-settings:'wght' 600" aria-label="J"></path>
      <path d="m 80.145814,76.034986 v -9.233089 h 2.442712 v 9.233089 q 0,1.321617 -0.501303,2.269536 -0.492188,0.947918 -1.34896,1.449221 -0.847658,0.501303 -1.923181,0.501303 -1.093752,0 -1.950524,-0.437501 -0.856773,-0.4375 -1.348961,-1.330731 -0.492189,-0.902346 -0.492189,-2.27865 h 2.451828 q 0,0.738282 0.164063,1.184898 0.173177,0.437501 0.473959,0.638022 0.309896,0.191406 0.701824,0.191406 0.410157,0 0.710939,-0.255208 0.300782,-0.255209 0.45573,-0.747398 0.164063,-0.492188 0.164063,-1.184898 z" id="SvgjsPath1025" style="font-size:18.6667px;font-family:Roboto;-inkscape-font-specification:'Roboto, @wght=600';font-variation-settings:'wght' 600" aria-label="J"></path>
      <path d="m 80.141271,-95.033686 v -9.233094 h 2.442713 v 9.233094 q 0,1.321617 -0.501303,2.269535 -0.492189,0.947919 -1.348961,1.449222 -0.847658,0.501303 -1.923181,0.501303 -1.093752,0 -1.950524,-0.437501 -0.856772,-0.437501 -1.348961,-1.330732 -0.492188,-0.902345 -0.492188,-2.27865 h 2.451827 q 0,0.738283 0.164063,1.184898 0.173177,0.437501 0.473959,0.638022 0.309896,0.191407 0.701824,0.191407 0.410157,0 0.710939,-0.255209 0.300782,-0.255209 0.45573,-0.747397 0.164063,-0.492188 0.164063,-1.184898 z" id="SvgjsPath1024" style="font-size:18.6667px;font-family:Roboto;-inkscape-font-specification:'Roboto, @wght=600';font-variation-settings:'wght' 600" transform="scale(1,-1)" aria-label="J"></path>
    </g>
  </g>
</svg><style>@media (prefers-color-scheme: light) { :root { filter: none; } }
@media (prefers-color-scheme: dark) { :root { filter: none; } }
</style></svg>